<svg width="477" height="310" viewBox="0 0 477 310" fill="none" xmlns="http://www.w3.org/2000/svg">
<g clip-path="url(#clip0_387_10)">
<path d="M337.307 108.356C323.007 147.056 259.007 174.256 259.007 174.256C241.417 169.762 224.404 163.252 208.307 154.856C199.935 159.658 191.324 164.03 182.507 167.956C182.507 167.956 100.607 148.556 75.8074 105.256C57.2074 72.6556 65.8074 32.6556 95.3074 15.8556C119.507 1.95557 150.307 8.25558 170.807 29.1556C187.507 5.15557 216.807 -6.24443 243.107 3.45557C256.795 8.54757 268.025 18.6686 274.507 31.7556C264.113 35.9746 255.175 43.1336 248.787 52.3556C231.787 35.0556 206.387 29.8556 186.287 41.3556C168.287 51.6556 159.687 72.5556 162.687 93.6556C162.287 75.0556 170.887 57.5556 186.887 48.4556C206.987 36.9556 232.387 42.1556 249.387 59.4556C263.187 39.5556 287.487 30.1556 309.187 38.1556C335.407 47.6556 348.007 79.1556 337.307 108.356Z" fill="#7FE09F"/>
</g>
<g clip-path="url(#clip1_387_10)">
<path d="M23.154 276.494C22.9037 277.746 22.1527 278.831 20.9012 279.748C19.733 280.583 18.0643 281 15.8949 281C14.0593 281 12.5991 280.499 11.5144 279.498C10.5132 278.497 9.97082 277.454 9.88738 276.369C10.388 272.865 10.6383 267.608 10.6383 260.599C10.6383 256.428 10.388 250.003 9.88738 241.325C9.30332 233.148 9.01128 225.889 9.01128 219.548C9.01128 216.127 9.17816 212.623 9.51191 209.035C9.51191 207.867 10.1794 206.615 11.5144 205.28C12.9329 203.945 14.8519 203.111 17.2716 202.777C25.1982 201.943 34.9187 201.525 46.4331 201.525H50.4382C53.4419 201.525 56.3622 202.068 59.1991 203.153C62.1195 204.237 63.5796 206.115 63.5796 208.785C63.5796 210.537 63.1624 211.913 62.3281 212.915C61.4937 213.916 59.9501 214.417 57.6973 214.417C56.6126 214.417 55.361 214.333 53.9426 214.166C52.5241 213.999 51.5229 213.874 50.9388 213.791C47.7682 213.29 45.3067 213.04 43.5545 213.04C33.8758 213.04 26.5749 213.707 21.6521 215.042C21.6521 217.796 21.7356 222.26 21.9024 228.434L22.0276 236.444C26.3664 236.444 30.2462 236.277 33.6672 235.944C37.0881 235.526 39.0489 235.276 39.5495 235.193C43.8883 234.692 46.7669 234.442 48.1853 234.442C50.1878 234.442 51.8566 234.901 53.1916 235.818C54.6101 236.653 55.3193 237.988 55.3193 239.823C55.3193 243.995 52.399 246.081 46.5583 246.081C45.1399 246.081 43.8883 246.123 42.8036 246.206C41.7189 246.29 40.8011 246.373 40.0502 246.457C37.0464 246.79 34.6684 246.957 32.9162 246.957C29.0781 246.957 25.824 247.083 23.154 247.333C23.154 250.42 23.2792 253.674 23.5295 257.095C23.5295 258.18 23.5712 259.849 23.6546 262.101C23.8215 264.354 23.9049 266.398 23.9049 268.234C23.9049 269.819 23.8632 271.279 23.7798 272.614C23.6963 273.95 23.4877 275.243 23.154 276.494ZM65.7659 254.467C65.7659 251.296 66.35 248.126 67.5181 244.955C68.6863 241.701 70.2299 238.739 72.1489 236.069C74.068 233.399 77.1135 231.229 81.2854 229.561C85.4573 227.808 89.1703 226.932 92.4243 226.932C95.7618 226.932 99.1411 227.391 102.562 228.309C106.066 229.227 108.486 230.645 109.821 232.564C112.908 236.903 114.452 241.158 114.452 245.33C114.452 247.583 113.951 249.502 112.95 251.088C112.032 252.673 110.697 254.383 108.945 256.219C107.527 257.721 105.274 258.722 102.187 259.223C99.1828 259.723 96.179 259.974 93.1753 259.974C91.2562 259.974 88.9199 259.807 86.1665 259.473C83.413 259.056 80.743 258.555 78.1565 257.971C78.3233 259.64 78.7405 261.267 79.408 262.852C80.0755 264.438 80.8682 265.647 81.786 266.482C83.4548 268.067 85.1652 269.068 86.9174 269.486C88.7531 269.903 91.0893 270.111 93.9262 270.111C96.93 270.111 99.7251 269.611 102.312 268.609C104.398 267.859 106.108 267.483 107.443 267.483C109.028 267.483 110.238 267.984 111.073 268.985C111.907 269.903 112.324 271.113 112.324 272.614C112.324 274.7 111.114 276.411 108.695 277.746C106.275 279.081 103.48 280.082 100.309 280.75C97.222 281.334 94.7189 281.626 92.7998 281.626C88.8782 281.626 85.0818 280.917 81.4105 279.498C77.7393 278.08 74.6938 276.077 72.2741 273.491C70.2716 271.154 68.6863 268.359 67.5181 265.105C66.35 261.768 65.7659 258.221 65.7659 254.467ZM93.0501 237.571C91.2145 237.571 89.3789 237.946 87.5432 238.697C85.7076 239.365 84.2057 240.324 83.0376 241.576C81.5357 243.161 80.4927 244.454 79.9087 245.455C79.408 246.373 79.0743 247.667 78.9074 249.335C80.9934 250.003 85.3321 250.337 91.9237 250.337C95.5115 250.337 98.265 249.794 100.184 248.71C102.187 247.625 103.188 246.206 103.188 244.454C103.188 242.702 102.103 241.117 99.9337 239.698C97.7644 238.28 95.4698 237.571 93.0501 237.571ZM155.449 248.835C155.699 248.167 156.575 245.748 158.077 241.576C159.662 237.404 161.122 234.233 162.457 232.064C164.627 228.643 166.546 226.932 168.215 226.932C170.551 226.932 172.345 227.391 173.596 228.309C174.848 229.143 175.474 230.353 175.474 231.939C175.474 232.69 175.14 233.732 174.472 235.067C173.888 236.402 173.555 237.195 173.471 237.445C170.134 244.788 167.13 252.673 164.46 261.1L161.832 270.862C160.83 274.033 159.12 276.62 156.7 278.622C154.28 280.541 151.444 281.501 148.189 281.501C145.269 281.501 142.557 280.166 140.054 277.496C138.552 275.159 136.967 272.197 135.298 268.609C133.713 265.022 132.336 261.517 131.168 258.096L126.788 244.955C125.87 242.368 125.119 240.157 124.535 238.322C124.034 236.486 123.784 234.817 123.784 233.315C123.7 231.563 124.201 230.145 125.286 229.06C126.37 227.975 127.872 227.433 129.791 227.433C131.961 227.433 133.504 227.892 134.422 228.81C135.34 229.644 136.174 230.979 136.925 232.815C137.259 234.734 138.177 238.655 139.679 244.579L140.555 248.084C141.306 250.921 142.265 253.799 143.434 256.72C144.602 259.64 145.77 262.435 146.938 265.105C146.771 264.688 147.355 266.065 148.69 269.235C149.524 266.816 150.484 263.854 151.569 260.349L155.449 248.835ZM183.095 252.339C183.095 247.249 184.221 243.036 186.474 239.698C188.727 236.277 191.855 233.065 195.86 230.061C197.029 229.227 198.989 228.518 201.743 227.934C204.496 227.266 206.916 226.932 209.002 226.932C211.505 226.932 214.133 227.475 216.887 228.559C219.724 229.561 222.018 230.729 223.77 232.064C226.858 234.317 228.985 236.945 230.153 239.949C231.322 242.869 231.906 246.373 231.906 250.462C231.906 252.214 230.904 253.924 228.902 255.593C226.983 257.179 224.897 257.971 222.644 257.971L217.888 257.846C215.468 257.846 212.006 257.929 207.5 258.096L204.872 258.221C203.036 258.388 201.659 258.472 200.742 258.472C199.407 258.472 197.571 258.305 195.235 257.971C195.568 261.893 197.029 264.98 199.615 267.233C202.202 269.402 204.997 270.487 208.001 270.487C213.257 270.487 216.929 269.444 219.014 267.358C220.767 266.106 221.935 265.314 222.519 264.98C223.103 264.646 224.021 264.479 225.272 264.479C226.607 264.479 227.775 265.105 228.777 266.357C229.778 267.608 230.279 268.86 230.279 270.111C230.279 271.53 229.402 272.99 227.65 274.492C225.982 275.91 223.687 277.412 220.767 278.997C219.181 279.665 217.012 280.249 214.259 280.75C211.505 281.25 209.211 281.501 207.375 281.501C204.455 281.501 201.201 280.666 197.613 278.997C194.025 277.245 191.355 275.326 189.603 273.24C187.85 271.154 186.307 268.192 184.972 264.354C183.72 260.516 183.095 256.511 183.095 252.339ZM208.001 248.96C213.925 248.96 218.264 248.751 221.017 248.334C220.85 245.914 220.099 243.954 218.764 242.452C217.429 240.866 215.594 239.531 213.257 238.447C212.506 238.113 211.839 237.863 211.255 237.696C210.671 237.529 210.003 237.445 209.252 237.445C205.414 237.445 202.16 238.488 199.49 240.574C196.903 242.66 195.36 245.33 194.859 248.584C199.031 248.835 203.412 248.96 208.001 248.96ZM244.247 237.07C242.078 235.568 240.993 233.983 240.993 232.314C240.993 231.146 241.494 230.061 242.495 229.06C243.496 228.059 244.998 227.558 247.001 227.558C249.337 227.558 251.423 228.184 253.259 229.435C255.178 230.604 256.513 232.314 257.264 234.567C259.183 232.314 261.352 230.52 263.772 229.185C266.275 227.85 268.82 227.183 271.406 227.183C274.493 227.183 277.289 228.017 279.792 229.686C282.295 231.354 283.546 233.607 283.546 236.444C283.546 238.03 282.837 239.657 281.419 241.325C280.084 242.994 278.707 243.828 277.289 243.828C276.538 243.828 275.87 243.662 275.286 243.328C274.786 242.911 274.16 242.327 273.409 241.576C272.574 240.741 271.865 240.157 271.281 239.823C270.697 239.406 270.03 239.198 269.279 239.198C267.944 239.198 266.692 239.406 265.524 239.823C264.356 240.241 263.563 240.741 263.146 241.325C261.811 243.411 260.81 245.289 260.142 246.957C259.558 248.626 259.266 250.42 259.266 252.339C259.266 253.758 259.224 254.884 259.141 255.718L259.016 262.852C259.016 263.937 259.057 265.147 259.141 266.482C259.224 267.817 259.308 268.818 259.391 269.486C259.642 271.738 259.767 273.908 259.767 275.994C259.767 277.412 259.224 278.664 258.14 279.748C257.055 280.833 255.72 281.375 254.135 281.375C251.632 281.375 249.796 280.917 248.628 279.999C247.46 278.997 246.876 277.204 246.876 274.617L246.75 266.607C246.667 265.022 246.625 262.769 246.625 259.849L246.75 251.588C246.917 247.583 247.001 244.329 247.001 241.826C247.001 240.908 246.792 240.074 246.375 239.323C246.041 238.572 245.332 237.821 244.247 237.07ZM310.574 268.735C313.411 267.817 316.123 266.148 318.71 263.728C321.38 261.309 323.591 258.597 325.343 255.593C327.179 252.506 328.263 249.544 328.597 246.707C326.261 248.376 323.883 249.544 321.463 250.211C319.043 250.879 316.248 251.213 313.078 251.213C308.822 251.213 305.318 250.503 302.564 249.085C299.811 247.583 296.891 245.455 293.803 242.702C293.303 242.201 292.677 241.117 291.926 239.448C291.175 237.696 290.508 235.568 289.924 233.065C289.34 230.478 289.047 227.85 289.047 225.18C289.047 222.76 289.798 220.216 291.3 217.546C292.802 214.876 294.68 212.498 296.932 210.412C299.269 208.242 301.48 206.699 303.566 205.781C305.485 204.946 307.696 204.237 310.199 203.653C312.786 202.986 314.955 202.652 316.707 202.652C322.631 202.652 327.596 204.029 331.601 206.782C335.689 209.536 338.693 213.207 340.612 217.796C342.531 222.385 343.491 227.475 343.491 233.065C343.491 242.66 341.363 251.421 337.108 259.348C332.852 267.191 327.471 273.282 320.962 277.621C319.878 278.372 318 279.206 315.33 280.124C312.744 280.958 310.366 281.375 308.196 281.375C306.528 281.375 305.068 280.625 303.816 279.123C302.564 277.621 301.939 275.91 301.939 273.991C301.939 272.656 302.398 271.738 303.315 271.238C304.233 270.654 305.735 270.07 307.821 269.486L310.574 268.735ZM316.707 213.29C315.372 213.29 313.787 213.582 311.951 214.166C310.199 214.667 308.697 215.293 307.446 216.044C306.027 216.878 304.65 218.171 303.315 219.924C302.064 221.592 301.438 222.886 301.438 223.803C301.438 234.734 305.86 240.199 314.705 240.199C316.707 240.199 318.918 239.782 321.338 238.947C323.841 238.03 325.927 236.778 327.596 235.193C329.265 233.607 330.099 231.813 330.099 229.811C330.099 224.304 328.931 220.174 326.595 217.42C324.342 214.667 321.046 213.29 316.707 213.29ZM376.086 268.735C378.923 267.817 381.635 266.148 384.221 263.728C386.891 261.309 389.102 258.597 390.855 255.593C392.69 252.506 393.775 249.544 394.109 246.707C391.772 248.376 389.394 249.544 386.975 250.211C384.555 250.879 381.76 251.213 378.589 251.213C374.334 251.213 370.83 250.503 368.076 249.085C365.323 247.583 362.402 245.455 359.315 242.702C358.815 242.201 358.189 241.117 357.438 239.448C356.687 237.696 356.019 235.568 355.435 233.065C354.851 230.478 354.559 227.85 354.559 225.18C354.559 222.76 355.31 220.216 356.812 217.546C358.314 214.876 360.191 212.498 362.444 210.412C364.78 208.242 366.991 206.699 369.077 205.781C370.996 204.946 373.208 204.237 375.711 203.653C378.297 202.986 380.467 202.652 382.219 202.652C388.143 202.652 393.107 204.029 397.112 206.782C401.201 209.536 404.205 213.207 406.124 217.796C408.043 222.385 409.002 227.475 409.002 233.065C409.002 242.66 406.875 251.421 402.619 259.348C398.364 267.191 392.982 273.282 386.474 277.621C385.389 278.372 383.512 279.206 380.842 280.124C378.256 280.958 375.878 281.375 373.708 281.375C372.039 281.375 370.579 280.625 369.328 279.123C368.076 277.621 367.45 275.91 367.45 273.991C367.45 272.656 367.909 271.738 368.827 271.238C369.745 270.654 371.247 270.07 373.333 269.486L376.086 268.735ZM382.219 213.29C380.884 213.29 379.299 213.582 377.463 214.166C375.711 214.667 374.209 215.293 372.957 216.044C371.539 216.878 370.162 218.171 368.827 219.924C367.576 221.592 366.95 222.886 366.95 223.803C366.95 234.734 371.372 240.199 380.216 240.199C382.219 240.199 384.43 239.782 386.85 238.947C389.353 238.03 391.439 236.778 393.107 235.193C394.776 233.607 395.611 231.813 395.611 229.811C395.611 224.304 394.442 220.174 392.106 217.42C389.853 214.667 386.558 213.29 382.219 213.29Z" fill="white"/>
</g>
<defs>
<clipPath id="clip0_387_10">
<rect width="275.119" height="174.256" fill="white" transform="translate(66)"/>
</clipPath>
<clipPath id="clip1_387_10">
<rect width="477" height="136" fill="white" transform="translate(0 174)"/>
</clipPath>
</defs>
</svg>
