<svg width="286" height="108" viewBox="0 0 286 108" fill="none" xmlns="http://www.w3.org/2000/svg">
<path d="M247.147 29.3842C226.648 18.3867 206.649 47.8865 231.647 67.8842" stroke="url(#paint0_linear_412_20)" stroke-width="3"/>
<path d="M239.648 61.5L227.648 85.5C229.648 86.1667 234.248 87.1 236.648 85.5C239.648 83.5 246.648 72.5 249.148 65" stroke="url(#paint1_linear_412_20)" stroke-width="3"/>
<path d="M269.148 62L257.148 86C259.148 86.6667 263.748 87.6 266.148 86C269.148 84 276.148 73 278.648 65.5" stroke="url(#paint2_linear_412_20)" stroke-width="3"/>
<path d="M275.648 28C284 33 288.5 47.5 278.5 66" stroke="url(#paint3_linear_412_20)" stroke-width="3"/>
<path d="M276.296 28.3842C255.797 17.3867 235.797 46.8865 260.796 66.8842" stroke="url(#paint4_linear_412_20)" stroke-width="3"/>
<path d="M244.648 47C244.648 52.0241 241.443 55.5 238.148 55.5C234.854 55.5 231.648 52.0241 231.648 47C231.648 41.9759 234.854 38.5 238.148 38.5C241.443 38.5 244.648 41.9759 244.648 47Z" stroke="url(#paint5_linear_412_20)" stroke-width="3"/>
<path d="M274.648 47C274.648 52.0241 271.443 55.5 268.148 55.5C264.854 55.5 261.648 52.0241 261.648 47C261.648 41.9759 264.854 38.5 268.148 38.5C271.443 38.5 274.648 41.9759 274.648 47Z" stroke="url(#paint6_linear_412_20)" stroke-width="3"/>
<path d="M16.65 82.76C16.47 83.66 15.93 84.44 15.03 85.1C14.19 85.7 12.99 86 11.43 86C10.11 86 9.06 85.64 8.28 84.92C7.56 84.2 7.17 83.45 7.11 82.67C7.47 80.15 7.65 76.37 7.65 71.33C7.65 68.33 7.47 63.71 7.11 57.47C6.69 51.59 6.48 46.37 6.48 41.81C6.48 39.35 6.6 36.83 6.84 34.25C6.84 33.41 7.32 32.51 8.28 31.55C9.3 30.59 10.68 29.99 12.42 29.75C18.12 29.15 25.11 28.85 33.39 28.85H36.27C38.43 28.85 40.53 29.24 42.57 30.02C44.67 30.8 45.72 32.15 45.72 34.07C45.72 35.33 45.42 36.32 44.82 37.04C44.22 37.76 43.11 38.12 41.49 38.12C40.71 38.12 39.81 38.06 38.79 37.94C37.77 37.82 37.05 37.73 36.63 37.67C34.35 37.31 32.58 37.13 31.32 37.13C24.36 37.13 19.11 37.61 15.57 38.57C15.57 40.55 15.63 43.76 15.75 48.2L15.84 53.96C18.96 53.96 21.75 53.84 24.21 53.6C26.67 53.3 28.08 53.12 28.44 53.06C31.56 52.7 33.63 52.52 34.65 52.52C36.09 52.52 37.29 52.85 38.25 53.51C39.27 54.11 39.78 55.07 39.78 56.39C39.78 59.39 37.68 60.89 33.48 60.89C32.46 60.89 31.56 60.92 30.78 60.98C30 61.04 29.34 61.1 28.8 61.16C26.64 61.4 24.93 61.52 23.67 61.52C20.91 61.52 18.57 61.61 16.65 61.79C16.65 64.01 16.74 66.35 16.92 68.81C16.92 69.59 16.95 70.79 17.01 72.41C17.13 74.03 17.19 75.5 17.19 76.82C17.19 77.96 17.16 79.01 17.1 79.97C17.04 80.93 16.89 81.86 16.65 82.76ZM47.2922 66.92C47.2922 64.64 47.7122 62.36 48.5522 60.08C49.3922 57.74 50.5022 55.61 51.8822 53.69C53.2622 51.77 55.4522 50.21 58.4522 49.01C61.4522 47.75 64.1222 47.12 66.4622 47.12C68.8622 47.12 71.2922 47.45 73.7522 48.11C76.2722 48.77 78.0122 49.79 78.9722 51.17C81.1922 54.29 82.3022 57.35 82.3022 60.35C82.3022 61.97 81.9422 63.35 81.2222 64.49C80.5622 65.63 79.6022 66.86 78.3422 68.18C77.3222 69.26 75.7022 69.98 73.4822 70.34C71.3222 70.7 69.1622 70.88 67.0022 70.88C65.6222 70.88 63.9422 70.76 61.9622 70.52C59.9822 70.22 58.0622 69.86 56.2022 69.44C56.3222 70.64 56.6222 71.81 57.1022 72.95C57.5822 74.09 58.1522 74.96 58.8122 75.56C60.0122 76.7 61.2422 77.42 62.5022 77.72C63.8222 78.02 65.5022 78.17 67.5422 78.17C69.7022 78.17 71.7122 77.81 73.5722 77.09C75.0722 76.55 76.3022 76.28 77.2622 76.28C78.4022 76.28 79.2722 76.64 79.8722 77.36C80.4722 78.02 80.7722 78.89 80.7722 79.97C80.7722 81.47 79.9022 82.7 78.1622 83.66C76.4222 84.62 74.4122 85.34 72.1322 85.82C69.9122 86.24 68.1122 86.45 66.7322 86.45C63.9122 86.45 61.1822 85.94 58.5422 84.92C55.9022 83.9 53.7122 82.46 51.9722 80.6C50.5322 78.92 49.3922 76.91 48.5522 74.57C47.7122 72.17 47.2922 69.62 47.2922 66.92ZM66.9122 54.77C65.5922 54.77 64.2722 55.04 62.9522 55.58C61.6322 56.06 60.5522 56.75 59.7122 57.65C58.6322 58.79 57.8822 59.72 57.4622 60.44C57.1022 61.1 56.8622 62.03 56.7422 63.23C58.2422 63.71 61.3622 63.95 66.1022 63.95C68.6822 63.95 70.6622 63.56 72.0422 62.78C73.4822 62 74.2022 60.98 74.2022 59.72C74.2022 58.46 73.4222 57.32 71.8622 56.3C70.3022 55.28 68.6522 54.77 66.9122 54.77ZM111.783 62.87C111.963 62.39 112.593 60.65 113.673 57.65C114.813 54.65 115.863 52.37 116.823 50.81C118.383 48.35 119.763 47.12 120.963 47.12C122.643 47.12 123.933 47.45 124.833 48.11C125.733 48.71 126.183 49.58 126.183 50.72C126.183 51.26 125.943 52.01 125.463 52.97C125.043 53.93 124.803 54.5 124.743 54.68C122.343 59.96 120.183 65.63 118.263 71.69L116.373 78.71C115.653 80.99 114.423 82.85 112.683 84.29C110.943 85.67 108.903 86.36 106.563 86.36C104.463 86.36 102.513 85.4 100.713 83.48C99.6328 81.8 98.4928 79.67 97.2928 77.09C96.1528 74.51 95.1628 71.99 94.3228 69.53L91.1728 60.08C90.5128 58.22 89.9728 56.63 89.5528 55.31C89.1928 53.99 89.0128 52.79 89.0128 51.71C88.9528 50.45 89.3128 49.43 90.0928 48.65C90.8728 47.87 91.9528 47.48 93.3328 47.48C94.8928 47.48 96.0028 47.81 96.6628 48.47C97.3228 49.07 97.9228 50.03 98.4628 51.35C98.7028 52.73 99.3628 55.55 100.443 59.81L101.073 62.33C101.613 64.37 102.303 66.44 103.143 68.54C103.983 70.64 104.823 72.65 105.663 74.57C105.543 74.27 105.963 75.26 106.923 77.54C107.523 75.8 108.213 73.67 108.993 71.15L111.783 62.87ZM131.663 65.39C131.663 61.73 132.473 58.7 134.093 56.3C135.713 53.84 137.963 51.53 140.843 49.37C141.683 48.77 143.093 48.26 145.073 47.84C147.053 47.36 148.793 47.12 150.293 47.12C152.093 47.12 153.983 47.51 155.963 48.29C158.003 49.01 159.653 49.85 160.913 50.81C163.133 52.43 164.663 54.32 165.503 56.48C166.343 58.58 166.763 61.1 166.763 64.04C166.763 65.3 166.043 66.53 164.603 67.73C163.223 68.87 161.723 69.44 160.103 69.44L156.683 69.35C154.943 69.35 152.453 69.41 149.213 69.53L147.323 69.62C146.003 69.74 145.013 69.8 144.353 69.8C143.393 69.8 142.073 69.68 140.393 69.44C140.633 72.26 141.683 74.48 143.543 76.1C145.403 77.66 147.413 78.44 149.573 78.44C153.353 78.44 155.993 77.69 157.493 76.19C158.753 75.29 159.593 74.72 160.013 74.48C160.433 74.24 161.093 74.12 161.993 74.12C162.953 74.12 163.793 74.57 164.513 75.47C165.233 76.37 165.593 77.27 165.593 78.17C165.593 79.19 164.963 80.24 163.703 81.32C162.503 82.34 160.853 83.42 158.753 84.56C157.613 85.04 156.053 85.46 154.073 85.82C152.093 86.18 150.443 86.36 149.123 86.36C147.023 86.36 144.683 85.76 142.103 84.56C139.523 83.3 137.603 81.92 136.343 80.42C135.083 78.92 133.973 76.79 133.013 74.03C132.113 71.27 131.663 68.39 131.663 65.39ZM149.573 62.96C153.833 62.96 156.953 62.81 158.933 62.51C158.813 60.77 158.273 59.36 157.313 58.28C156.353 57.14 155.033 56.18 153.353 55.4C152.813 55.16 152.333 54.98 151.913 54.86C151.493 54.74 151.013 54.68 150.473 54.68C147.713 54.68 145.373 55.43 143.453 56.93C141.593 58.43 140.483 60.35 140.123 62.69C143.123 62.87 146.273 62.96 149.573 62.96ZM175.638 54.41C174.078 53.33 173.298 52.19 173.298 50.99C173.298 50.15 173.658 49.37 174.378 48.65C175.098 47.93 176.178 47.57 177.618 47.57C179.298 47.57 180.798 48.02 182.118 48.92C183.498 49.76 184.458 50.99 184.998 52.61C186.378 50.99 187.938 49.7 189.678 48.74C191.478 47.78 193.308 47.3 195.168 47.3C197.388 47.3 199.398 47.9 201.198 49.1C202.998 50.3 203.898 51.92 203.898 53.96C203.898 55.1 203.388 56.27 202.368 57.47C201.408 58.67 200.418 59.27 199.398 59.27C198.858 59.27 198.378 59.15 197.958 58.91C197.598 58.61 197.148 58.19 196.608 57.65C196.008 57.05 195.498 56.63 195.078 56.39C194.658 56.09 194.178 55.94 193.638 55.94C192.678 55.94 191.778 56.09 190.938 56.39C190.098 56.69 189.528 57.05 189.228 57.47C188.268 58.97 187.548 60.32 187.068 61.52C186.648 62.72 186.438 64.01 186.438 65.39C186.438 66.41 186.408 67.22 186.348 67.82L186.258 72.95C186.258 73.73 186.288 74.6 186.348 75.56C186.408 76.52 186.468 77.24 186.528 77.72C186.708 79.34 186.798 80.9 186.798 82.4C186.798 83.42 186.408 84.32 185.628 85.1C184.848 85.88 183.888 86.27 182.748 86.27C180.948 86.27 179.628 85.94 178.788 85.28C177.948 84.56 177.528 83.27 177.528 81.41L177.438 75.65C177.378 74.51 177.348 72.89 177.348 70.79L177.438 64.85C177.558 61.97 177.618 59.63 177.618 57.83C177.618 57.17 177.468 56.57 177.168 56.03C176.928 55.49 176.418 54.95 175.638 54.41Z" fill="white"/>
<defs>
<linearGradient id="paint0_linear_412_20" x1="233.574" y1="27" x2="233.574" y2="67.8842" gradientUnits="userSpaceOnUse">
<stop stop-color="#74A923"/>
<stop offset="0.96" stop-color="#12403E"/>
</linearGradient>
<linearGradient id="paint1_linear_412_20" x1="238.398" y1="61.5" x2="238.398" y2="86.3834" gradientUnits="userSpaceOnUse">
<stop stop-color="#74A923"/>
<stop offset="0.96" stop-color="#12403E"/>
</linearGradient>
<linearGradient id="paint2_linear_412_20" x1="267.898" y1="62" x2="267.898" y2="86.8834" gradientUnits="userSpaceOnUse">
<stop stop-color="#74A923"/>
<stop offset="0.96" stop-color="#12403E"/>
</linearGradient>
<linearGradient id="paint3_linear_412_20" x1="279.935" y1="28" x2="279.935" y2="66" gradientUnits="userSpaceOnUse">
<stop stop-color="#74A923"/>
<stop offset="0.96" stop-color="#12403E"/>
</linearGradient>
<linearGradient id="paint4_linear_412_20" x1="262.722" y1="26" x2="262.722" y2="66.8842" gradientUnits="userSpaceOnUse">
<stop stop-color="#74A923"/>
<stop offset="0.96" stop-color="#12403E"/>
</linearGradient>
<linearGradient id="paint5_linear_412_20" x1="238.148" y1="37" x2="238.148" y2="57" gradientUnits="userSpaceOnUse">
<stop stop-color="#74A923"/>
<stop offset="0.96" stop-color="#12403E"/>
</linearGradient>
<linearGradient id="paint6_linear_412_20" x1="268.148" y1="37" x2="268.148" y2="57" gradientUnits="userSpaceOnUse">
<stop stop-color="#74A923"/>
<stop offset="0.96" stop-color="#12403E"/>
</linearGradient>
</defs>
</svg>
